<?xml version="1.0" encoding="UTF-8"?>
<svg width="100pt" height="100pt" version="1.1" viewBox="00 00 800 500" xmlns="http://www.w3.org/2000/svg">
 <g>
  <path d="m189.16 377.88c-34.695 0-62.93 28.234-62.93 62.953 0 34.695 28.234 62.93 62.93 62.93 34.695 0 62.953-28.234 62.953-62.93 0-34.719-28.258-62.953-62.953-62.953zm0 107.22c-24.406 0-44.238-19.855-44.238-44.262s19.855-44.285 44.238-44.285c24.43 0 44.262 19.879 44.262 44.285 0 24.402-19.832 44.262-44.262 44.262z"/>
  <path d="m510.84 324.29c-46.152 0-73.523-12.484-88.34-22.656 100.12-91.422 151.29-188.79 151.29-289.68 0-3.8281-2.332-7.2578-5.8789-8.6797-3.5-1.3984-7.582-0.53516-10.219 2.2383l-209.04 220.01-206.27-219.94c-2.6367-2.8242-6.6953-3.6875-10.242-2.3125-3.5703 1.4023-5.9023 4.8555-5.9023 8.6797 0 136.31 70.281 219.78 149.61 288.07-23.309 12.855-57.352 24.242-86.684 24.242-64.262 0-116.55 52.289-116.55 116.55s52.289 116.55 116.55 116.55c48.16 0 90.742-29.004 108.2-73.406 9.8008-21.047 14.77-43.422 14.77-66.477 0-9.8711 16.031-33.648 37.355-56.094 26.809 23.965 38.453 40.879 38.453 56.094 0 23.078 4.9688 45.453 14.512 65.965 17.688 44.918 60.246 73.922 108.41 73.922 64.262 0 116.55-52.289 116.55-116.55 0.003906-64.262-52.309-116.53-116.57-116.53zm43.191-287.84c-7.6758 87.336-56.77 172.22-145.62 252.89-0.11719-0.14062-0.42188-0.51172-0.46484-0.55859l-41.066-43.797-5.4609-5.832zm-260.59 381.06c0 20.324-4.3867 40.039-13.207 59.125-14.863 37.73-50.609 62.09-91.047 62.09-53.969 0-97.859-43.914-97.859-97.883s43.914-97.883 97.859-97.883c36.516 0 76.488-14.863 101.45-29.961 18.293 16.684 33.785 29.191 43.938 36.984-14.305 15.238-41.137 46.574-41.137 67.527zm217.39 121.21c-40.438 0-76.207-24.359-91.281-62.602-8.6094-18.551-12.973-38.266-12.973-58.613 0-27.09-22.656-50.703-47.973-72.895-0.25781-0.16406-24.594-17.219-56.398-46.316-0.35156-0.39844-0.55859-0.88672-0.98047-1.2383-76.207-63.398-147.07-138.93-155.49-260.63l196.86 209.95c16.285 17.547 40.438 43.516 52.43 56.094 1.2852 1.5391 3.4297 3.875 6.5352 6.6719 0.14062 0.11719 0.48828 0.51172 0.58203 0.55859 0.023437 0.023437 0.070312 0 0.09375 0.023437 14.07 12.508 46.668 33.18 108.62 33.18 53.969 0 97.859 43.914 97.859 97.883 0 53.977-43.91 97.934-97.883 97.934z"/>
  <path d="m510.84 377.88c-34.695 0-62.953 28.234-62.953 62.953 0 34.695 28.258 62.93 62.953 62.93 34.695 0 62.93-28.234 62.93-62.93 0-34.719-28.23-62.953-62.93-62.953zm0 107.22c-24.43 0-44.262-19.855-44.262-44.262s19.855-44.285 44.262-44.285 44.238 19.879 44.238 44.285c0.003906 24.402-19.832 44.262-44.238 44.262z"/>
  <path d="m365.1 293.39c0 11.105-9.0078 20.113-20.113 20.113-11.109 0-20.113-9.0078-20.113-20.113 0-11.109 9.0039-20.113 20.113-20.113 11.105 0 20.113 9.0039 20.113 20.113"/>
 </g>
</svg>
